<?xml version="1.0" encoding="iso-8859-1"?>
<!-- Generator: Adobe Illustrator 19.0.0, SVG Export Plug-In . SVG Version: 6.00 Build 0)  -->
<svg version="1.1" id="Layer_1" xmlns="http://www.w3.org/2000/svg" xmlns:xlink="http://www.w3.org/1999/xlink" x="0px" y="0px"
	 viewBox="0 0 503.607 503.607" style="enable-background:new 0 0 503.607 503.607;" xml:space="preserve">
<g transform="translate(1 1)">
	<g>
		<g>
			<path d="M469.033,175.262c-6.194,0-12.006,1.706-17.001,4.663c-1.872-16.726-16.155-29.843-33.36-29.843
				c-6.194,0-12.006,1.706-17.001,4.663c-1.872-16.726-16.155-29.843-33.36-29.843c-18.466,0-33.574,15.108-33.574,33.574v41.967
				H166.869v-41.967c0-18.466-15.108-33.574-33.574-33.574c-17.204,0-31.488,13.117-33.36,29.843
				c-4.995-2.956-10.807-4.663-17.001-4.663c-17.204,0-31.488,13.117-33.36,29.843c-4.995-2.956-10.807-4.663-17.001-4.663
				C14.108,175.262-1,190.37-1,208.836v83.934c0,18.466,15.108,33.574,33.574,33.574c6.194,0,12.006-1.706,17.001-4.663
				c1.872,16.726,16.155,29.843,33.36,29.843c6.194,0,12.006-1.706,17.001-4.663c1.872,16.726,16.155,29.843,33.36,29.843
				c18.466,0,33.574-15.108,33.574-33.574v-41.967h167.869v41.967c0,18.466,15.108,33.574,33.574,33.574
				c17.204,0,31.488-13.117,33.36-29.843c4.995,2.956,10.807,4.663,17.001,4.663c17.204,0,31.488-13.117,33.36-29.843
				c4.995,2.956,10.807,4.663,17.001,4.663c18.466,0,33.574-15.108,33.574-33.574v-83.934
				C502.607,190.37,487.498,175.262,469.033,175.262z M32.574,309.557c-9.233,0-16.787-7.554-16.787-16.787v-83.934
				c0-9.233,7.554-16.787,16.787-16.787s16.787,7.554,16.787,16.787v83.934C49.361,302.003,41.807,309.557,32.574,309.557z
				 M82.934,334.738c-9.233,0-16.787-7.554-16.787-16.787v-25.18v-83.934v-25.18c0-9.233,7.554-16.787,16.787-16.787
				s16.787,7.554,16.787,16.787v134.295C99.721,327.184,92.167,334.738,82.934,334.738z M150.082,343.131
				c0,9.233-7.554,16.787-16.787,16.787s-16.787-7.554-16.787-16.787v-25.18V183.656v-25.18c0-9.233,7.554-16.787,16.787-16.787
				s16.787,7.554,16.787,16.787v41.967v100.721V343.131z M292.77,284.377c0-5.036-3.357-8.393-8.393-8.393
				c-5.036,0-8.393,3.357-8.393,8.393h-16.787c0-5.036-3.357-8.393-8.393-8.393s-8.393,3.357-8.393,8.393h-16.787
				c0-5.036-3.357-8.393-8.393-8.393c-5.036,0-8.393,3.357-8.393,8.393h-41.967v-67.148h41.967c0,5.036,3.357,8.393,8.393,8.393
				c5.036,0,8.393-3.357,8.393-8.393h16.787c0,5.036,3.357,8.393,8.393,8.393s8.393-3.357,8.393-8.393h16.787
				c0,5.036,3.357,8.393,8.393,8.393c4.197,0,8.393-3.357,8.393-8.393h41.967v67.148H292.77z M385.098,343.131
				c0,9.233-7.554,16.787-16.787,16.787c-9.233,0-16.787-7.554-16.787-16.787v-41.967V200.443v-41.967
				c0-9.233,7.554-16.787,16.787-16.787c9.233,0,16.787,7.554,16.787,16.787v25.18v134.295V343.131z M435.459,317.951
				c0,9.233-7.554,16.787-16.787,16.787s-16.787-7.554-16.787-16.787V183.656c0-9.233,7.554-16.787,16.787-16.787
				s16.787,7.554,16.787,16.787v25.18v83.934V317.951z M485.82,292.771c0,9.233-7.554,16.787-16.787,16.787
				s-16.787-7.554-16.787-16.787v-83.934c0-9.233,7.554-16.787,16.787-16.787s16.787,7.554,16.787,16.787V292.771z"/>
			<path d="M234.016,242.41c5.036,0,8.393-3.357,8.393-8.393c0-5.036-3.357-8.393-8.393-8.393s-8.393,3.357-8.393,8.393
				C225.623,239.052,228.98,242.41,234.016,242.41z"/>
			<path d="M267.59,242.41c5.036,0,8.393-3.357,8.393-8.393c0-5.036-3.357-8.393-8.393-8.393c-5.036,0-8.393,3.357-8.393,8.393
				C259.197,239.052,262.554,242.41,267.59,242.41z"/>
			<path d="M217.229,242.41c-5.036,0-8.393,3.357-8.393,8.393s3.357,8.393,8.393,8.393c5.036,0,8.393-3.357,8.393-8.393
				S222.266,242.41,217.229,242.41z"/>
			<path d="M250.803,242.41c-5.036,0-8.393,3.357-8.393,8.393s3.357,8.393,8.393,8.393s8.393-3.357,8.393-8.393
				S255.839,242.41,250.803,242.41z"/>
			<path d="M284.377,242.41c-5.036,0-8.393,3.357-8.393,8.393s3.357,8.393,8.393,8.393c4.197,0,8.393-3.357,8.393-8.393
				S289.413,242.41,284.377,242.41z"/>
			<path d="M234.016,259.197c-5.036,0-8.393,3.357-8.393,8.393s3.357,8.393,8.393,8.393s8.393-3.357,8.393-8.393
				S239.052,259.197,234.016,259.197z"/>
			<path d="M267.59,259.197c-5.036,0-8.393,3.357-8.393,8.393s3.357,8.393,8.393,8.393s8.393-3.357,8.393-8.393
				S272.626,259.197,267.59,259.197z"/>
		</g>
	</g>
</g>
<g>
</g>
<g>
</g>
<g>
</g>
<g>
</g>
<g>
</g>
<g>
</g>
<g>
</g>
<g>
</g>
<g>
</g>
<g>
</g>
<g>
</g>
<g>
</g>
<g>
</g>
<g>
</g>
<g>
</g>
</svg>
